<svg width="528" height="130" viewBox="0 0 528 130" fill="none" xmlns="http://www.w3.org/2000/svg">
<g clip-path="url(#clip0_1676_34722)">
<rect width="528" height="130" rx="8" fill="#3355B5"/>
<path fill-rule="evenodd" clip-rule="evenodd" d="M448.629 -63.1656C476.192 -58.6831 494.73 -33.9155 514.402 -14.1159C530.398 1.98474 541.252 20.9829 552.055 40.9349C563.673 62.389 579.475 82.5941 579.975 106.98C580.513 133.272 572.536 160.576 554.904 180.103C537.398 199.491 510.752 207.234 485.07 212.089C461.161 216.608 437.419 212.411 413.746 206.786C388.872 200.876 358.373 199.782 344.096 178.595C329.748 157.303 350.744 127.899 343.914 103.156C335.465 72.5439 295.238 51.8489 300.467 20.5278C305.45 -9.31482 341.119 -23.1157 367.484 -38.0085C392.646 -52.2219 420.098 -67.8054 448.629 -63.1656Z" fill="#D6DDF0"/>
<path fill-rule="evenodd" clip-rule="evenodd" d="M488.629 -73.1656C516.192 -68.6831 534.73 -43.9155 554.402 -24.1159C570.398 -8.01526 581.252 10.9829 592.055 30.9349C603.673 52.389 619.475 72.5941 619.975 96.9803C620.513 123.272 612.536 150.576 594.904 170.103C577.398 189.491 550.752 197.234 525.07 202.089C501.161 206.608 477.419 202.411 453.746 196.786C428.872 190.876 398.373 189.782 384.096 168.595C369.748 147.303 390.744 117.899 383.914 93.1555C375.465 62.5439 335.238 41.8489 340.467 10.5278C345.45 -19.3148 381.119 -33.1157 407.484 -48.0085C432.646 -62.2219 460.098 -77.8054 488.629 -73.1656Z" fill="#BBC6E6"/>
</g>
<defs>
<clipPath id="clip0_1676_34722">
<rect width="528" height="130" rx="8" fill="white"/>
</clipPath>
</defs>
</svg>
