<svg width="528" height="130" viewBox="0 0 528 130" fill="none" xmlns="http://www.w3.org/2000/svg">
<g clip-path="url(#clip0_1642_34799)">
<rect width="528" height="130" rx="8" fill="#3355B5"/>
<path fill-rule="evenodd" clip-rule="evenodd" d="M484.601 -108.992C516.868 -109.272 549.74 -102.522 576.047 -83.8406C601.771 -65.5732 615.278 -35.9241 628.091 -7.09654C640.787 21.4679 655.244 51.3828 649.833 82.1688C644.479 112.632 621.648 136.423 599.138 157.641C578.313 177.27 554.508 198.722 525.889 198.999C498.217 199.266 482.649 161.083 455.052 159.031C414.506 156.015 374.972 202.852 338.418 185.056C305.76 169.157 294.782 120.176 302.233 84.632C309.601 49.4875 358.09 40.0199 375.417 8.5666C390.643 -19.072 372.696 -59.1383 394.171 -82.2606C416.002 -105.766 452.519 -108.713 484.601 -108.992Z" fill="#FBEFD2"/>
<path fill-rule="evenodd" clip-rule="evenodd" d="M524.601 -116.992C556.868 -117.272 589.74 -110.522 616.047 -91.8406C641.771 -73.5732 655.278 -43.9241 668.091 -15.0965C680.787 13.4679 695.244 43.3828 689.833 74.1688C684.479 104.632 661.648 128.423 639.138 149.641C618.313 169.27 594.508 190.723 565.889 190.999C538.217 191.266 522.649 153.083 495.052 151.031C454.506 148.015 414.972 194.852 378.418 177.056C345.76 161.157 334.782 112.176 342.233 76.632C349.601 41.4875 398.09 32.0199 415.417 0.566605C430.643 -27.072 412.696 -67.1383 434.171 -90.2606C456.002 -113.766 492.519 -116.713 524.601 -116.992Z" fill="#ECB11F"/>
</g>
<defs>
<clipPath id="clip0_1642_34799">
<rect width="528" height="130" rx="8" fill="white"/>
</clipPath>
</defs>
</svg>
